<?xml version="1.0" encoding="iso-8859-1"?>
<!-- Uploaded to: SVG Repo, www.svgrepo.com, Generator: SVG Repo Mixer Tools -->
<svg fill="#000000" height="800px" width="800px" version="1.1" id="Layer_1" xmlns="http://www.w3.org/2000/svg" xmlns:xlink="http://www.w3.org/1999/xlink" 
	 viewBox="0 0 512 512" xml:space="preserve">
<g>
	<g>
		<polygon points="266.534,81.856 266.534,40.928 246.07,40.928 246.07,81.856 205.142,81.856 205.142,102.321 246.07,102.321 
			246.07,143.249 266.534,143.249 266.534,102.321 307.463,102.321 307.463,81.856 		"/>
	</g>
</g>
<g>
	<g>
		<path d="M399.266,175.204L429.77,12.519c0.559-2.993-0.24-6.279-2.183-8.622C425.643,1.556,422.758,0,419.713,0H92.287
			c-3.045,0-5.93,1.556-7.874,3.897c-1.944,2.343-2.743,5.53-2.183,8.522l30.504,162.739
			c-18.128,32.463-28.515,69.946-30.351,109.289c-0.312,1.28-0.38,2.621-0.185,3.938c-0.092,2.903-0.143,5.819-0.143,8.739
			C82.055,415.606,160.087,512,256,512c95.913,0,173.945-96.389,173.945-214.871C429.945,253.143,419.336,211.128,399.266,175.204z
			 M104.615,20.464h302.77l-26.859,143.249H131.474L104.615,20.464z M256,491.539c-84.629,0-153.481-87.211-153.481-194.409
			c0-1.533,0.042-3.056,0.07-4.585c18.523-11.096,89.341-49.699,145.777-28.388c4.496,9.521,17.314,34.101,38.77,55.558
			c24.511,24.512,52.177,36.925,81.582,36.924c11.339,0,22.937-1.872,34.71-5.582C384.923,432.095,325.856,491.539,256,491.539z
			 M405.681,328.56c-38.113,15.243-73.001,7.528-103.687-22.929c-23.999-23.815-36.432-53.081-36.549-53.363
			c-1.024-2.458-2.968-4.421-5.416-5.47c-57.175-24.501-124.438,4.187-155.786,21.024c3.547-30.018,12.6-58.065,26.694-83.645
			H381.06c18.588,33.254,28.42,72.012,28.42,112.752c0,10.517-0.684,21.034-1.961,31.102
			C406.903,328.153,406.286,328.318,405.681,328.56z"/>
	</g>
</g>
</svg>